
        <svg xmlns="http://www.w3.org/2000/svg" xmlns:xlink="http://www.w3.org/1999/xlink" version="1.1" width="3187.5" height="1031.257152557373" viewBox="0 0 3187.5 1031.257152557373">
			
			<g transform="scale(9.375) translate(10, 10)">
				<defs id="SvgjsDefs1223"><linearGradient id="SvgjsLinearGradient1228"><stop id="SvgjsStop1229" stop-color="#8f5e25" offset="0"/><stop id="SvgjsStop1230" stop-color="#fbf4a1" offset="0.5"/><stop id="SvgjsStop1231" stop-color="#8f5e25" offset="1"/></linearGradient><linearGradient id="SvgjsLinearGradient1232"><stop id="SvgjsStop1233" stop-color="#8f5e25" offset="0"/><stop id="SvgjsStop1234" stop-color="#fbf4a1" offset="0.5"/><stop id="SvgjsStop1235" stop-color="#8f5e25" offset="1"/></linearGradient></defs><g id="SvgjsG1224" featureKey="symbolFeature-0" transform="matrix(1.1111111111111112,0,0,1.1111111111111112,-5.555555555555555,-10.554788377549913)" fill="#000"><path xmlns="http://www.w3.org/2000/svg" d="M5,59.139V46.926c0-1.119,0.919-2.034,2.045-2.034h21.581L19.23,61.175H7.045  C5.919,61.175,5,60.262,5,59.139z M20.373,84.147l-6.887,4.666c-0.927,0.63-1.582,0.231-1.454-0.881l0.919-7.984  c0.128-1.112,1.03-1.566,2.005-1.01l5.33,3.045C21.26,82.541,21.3,83.519,20.373,84.147z M22.027,79.647l-5.33-3.046  c-0.975-0.557-1.318-1.805-0.751-2.776l24.681-42.784c0.56-0.972,1.822-1.313,2.796-0.749l5.33,3.038  c0.975,0.564,1.31,1.813,0.751,2.782L24.823,78.899C24.264,79.869,23.001,80.202,22.027,79.647z M40.811,61.175l9.396-16.283h5.41  l7.63,16.283H40.811z M71.413,66.034c-2.133-1.065-12.76-25.476-15.484-31.845c-2.725-6.369-10.955-23.323-8.293-24.642  c1.894-0.946,8.693,12.404,13.79,20.419c5.09,8.015,15.733,28.681,17.043,31.034c1.303,2.36-1.254,4.326-2.676,4.915  C74.37,66.504,73.546,67.091,71.413,66.034z M78.397,77.254l-3.212-5.05c-0.663-1.05-0.319-2.347,0.759-2.901l3.06-1.567  c1.079-0.549,2.429-0.104,3.004,0.995l2.533,4.85c0.576,1.097,0.184,2.505-0.855,3.125l-2.189,1.303  C80.458,78.637,79.06,78.295,78.397,77.254z M90.214,90.5c-0.671-2.139-5.793-2.281-8.086-5.503c-2.301-3.211-0.399-4.865,0.4-5.629  C91.828,74.153,90.214,90.5,90.214,90.5z M95,59.139c0,1.123-0.919,2.036-2.045,2.036H82.152c-0.119-0.628-0.312-1.256-0.639-1.845  c-0.28-0.501-0.991-1.852-1.982-3.736c-1.43-2.719-3.483-6.607-5.681-10.702h19.104c1.126,0,2.045,0.915,2.045,2.034V59.139z"/></g><g id="SvgjsG1225" featureKey="nameFeature-0" transform="matrix(0.44260024673396936,0,0,0.44260024673396936,118.93674126890038,33.7959875980623)" fill="#000"><path d="M6.6406 23.984 l6.0742 0.000019073 c1.0547 0 1.9596 -0.3776 2.7148 -1.1328 c0.74219 -0.74219 1.1133 -1.6406 1.1133 -2.6953 c0 -1.0677 -0.37109 -1.9791 -1.1133 -2.7344 c-0.75521 -0.75521 -1.6602 -1.1328 -2.7148 -1.1328 l-6.0742 0 l0 7.6953 z M6.6406 40.000019073 l-4.2383 -0.000019073 l0 -27.949 l10.313 0 c2.2266 0 4.1275 0.79428 5.7031 2.3828 c1.5885 1.5755 2.3828 3.483 2.3828 5.7227 c0 2.2266 -0.79428 4.1275 -2.3828 5.7031 c-1.5755 1.5755 -3.4766 2.3633 -5.7031 2.3633 l-6.0742 0 l0 11.777 z M28.4961 12.09 l-4.2383 0 l0 27.91 l4.2383 0 l0 -27.91 z M47.636250000000004 12.050999999999998 l-5.918 10.039 l-5.918 -10.039 l-4.9219 0 l8.3789 14.219 l-8.0859 13.73 l4.9219 0 l5.625 -9.5508 l5.625 9.5508 l4.9219 0 l-8.0859 -13.73 l8.3789 -14.219 l-4.9219 0 z M55.09770625 12.050999999999998 l0 27.949 l14.258 0 l0 -4.2383 l-10.02 0 l0 -7.6563 l7.7344 0 l0 -4.2383 l-7.7344 0 l0 -7.5781 l10.02 0 l0 -4.2383 l-14.258 0 z M72.75395625 12.050999999999998 l0 27.949 l14.258 0 l0 -4.2383 l-10.02 0 l0 -23.711 l-4.2383 0 z M104.62888125 23.984 l6.0742 0.000019073 c1.0547 0 1.9596 -0.3776 2.7148 -1.1328 c0.74219 -0.74219 1.1133 -1.6406 1.1133 -2.6953 c0 -1.0677 -0.37109 -1.9791 -1.1133 -2.7344 c-0.75521 -0.75521 -1.6602 -1.1328 -2.7148 -1.1328 l-6.0742 0 l0 7.6953 z M104.62888125 40.000019073 l-4.2383 -0.000019073 l0 -27.949 l10.313 0 c2.2266 0 4.1275 0.79428 5.7031 2.3828 c1.5885 1.5755 2.3828 3.483 2.3828 5.7227 c0 2.2266 -0.79428 4.1275 -2.3828 5.7031 c-1.5755 1.5755 -3.4766 2.3633 -5.7031 2.3633 l-6.0742 0 l0 11.777 z M122.20708125 12.050999999999998 l0 27.949 l14.258 0 l0 -4.2383 l-10.02 0 l0 -7.6563 l7.7344 0 l0 -4.2383 l-7.7344 0 l0 -7.5781 l10.02 0 l0 -4.2383 l-14.258 0 z M143.88673125 23.984 l0 -7.6953 l6.0742 0 c1.0547 0 1.9596 0.3776 2.7148 1.1328 c0.74219 0.75521 1.1133 1.6667 1.1133 2.7344 c0 1.0547 -0.37109 1.9531 -1.1133 2.6953 c-0.75521 0.75521 -1.6602 1.1328 -2.7148 1.1328 l-6.0742 0 z M153.12453125 27.578 c1.4583 -0.625 2.6367 -1.6015 3.5352 -2.9297 c0.92447 -1.3542 1.3867 -2.8516 1.3867 -4.4922 c0 -2.2396 -0.79428 -4.1471 -2.3828 -5.7227 c-1.5755 -1.5885 -3.4766 -2.3828 -5.7031 -2.3828 l-10.313 0 l0 27.949 l4.2383 0 l0 -11.777 l4.7852 0 l6.1133 11.777 l4.7852 0 z M161.97270625 12.050999999999998 l0 27.949 l4.2383 0 l0 -11.895 l7.7344 0 l0 -4.2383 l-7.7344 0 l0 -7.5781 l10.02 0 l0 -4.2383 l-14.258 0 z M179.62895625 12.050999999999998 l0 27.949 l14.258 0 l0 -4.2383 l-10.02 0 l0 -7.6563 l7.7344 0 l0 -4.2383 l-7.7344 0 l0 -7.5781 l10.02 0 l0 -4.2383 l-14.258 0 z M203.24220625 33.0859 c-1.9531 -1.9531 -2.9297 -4.31 -2.9297 -7.0703 s0.97656 -5.1172 2.9297 -7.0703 c1.9531 -1.9662 4.31 -2.9492 7.0703 -2.9492 c1.6927 0 3.2748 0.40365 4.7461 1.2109 l0 -4.6484 c-1.5365 -0.53385 -3.1186 -0.80078 -4.7461 -0.80078 c-3.9322 0 -7.2916 1.3932 -10.078 4.1797 s-4.1797 6.1459 -4.1797 10.078 s1.3932 7.2916 4.1797 10.078 s6.1459 4.1797 10.078 4.1797 c1.6276 0 3.2096 -0.27344 4.7461 -0.82031 l0 -4.6289 c-1.4713 0.79428 -3.0533 1.1914 -4.7461 1.1914 c-2.7604 0 -5.1172 -0.97656 -7.0703 -2.9297 z M217.59766875 12.050999999999998 l0 4.2383 l5.918 0 l0 23.711 l4.2578 0 l0 -23.711 l5.918 0 l0 -4.2383 l-16.094 0 z M247.636725 12.050999999999998 l0 27.949 l5.1953 0 l12.383 -21.035 l0 21.035 l5.1953 0 l16.465 -27.949 l-4.9219 0 l-12.48 21.191 l0 -21.191 l-5.1172 0 l-12.48 21.191 l0 -21.191 l-4.2383 0 z M289.23833125 12.050999999999998 l0 27.949 l14.258 0 l0 -4.2383 l-10.02 0 l0 -7.6563 l7.7344 0 l0 -4.2383 l-7.7344 0 l0 -7.5781 l10.02 0 l0 -4.2383 l-14.258 0 z M311.19138125 23.828 l4.5313 -0.000038146 c1.0417 0 1.9271 -0.37109 2.6563 -1.1133 c0.74219 -0.72916 1.1133 -1.6146 1.1133 -2.6563 s-0.37109 -1.9271 -1.1133 -2.6563 c-0.72916 -0.74219 -1.6146 -1.1133 -2.6563 -1.1133 l-4.5313 0 l0 7.5391 z M311.19138125 35.7617 l6.0742 0.000019073 c1.0547 0 1.9596 -0.3776 2.7148 -1.1328 c0.74219 -0.75521 1.1133 -1.6667 1.1133 -2.7344 c0 -1.0547 -0.37109 -1.9531 -1.1133 -2.6953 c-0.75521 -0.75521 -1.6602 -1.1328 -2.7148 -1.1328 l-6.0742 0 l0 7.6953 z M306.95308125 39.999980927 l0.000019073 -27.949 l8.7695 0 c2.2135 0 4.1016 0.78125 5.6641 2.3438 c1.5625 1.5755 2.3438 3.4635 2.3438 5.6641 c0 1.9662 -0.6315 3.6914 -1.8945 5.1758 c1.0807 0.74219 1.9271 1.6927 2.5391 2.8516 c0.65104 1.1849 0.97656 2.4545 0.97656 3.8086 c0 2.2396 -0.79428 4.1471 -2.3828 5.7227 c-1.5755 1.5885 -3.4766 2.3828 -5.7031 2.3828 l-10.313 0 z M342.79299375 35.7812 l3.125 -0.000019073 c2.6822 0 4.9805 -0.95703 6.8945 -2.8711 c1.901 -1.901 2.8516 -4.1928 2.8516 -6.875 c0 -2.6953 -0.95053 -4.9936 -2.8516 -6.8945 c-1.9141 -1.9141 -4.2123 -2.8711 -6.8945 -2.8711 l-3.125 0 l0 19.512 z M338.57419375 39.999980927 l0 -27.949 l7.3438 0 c3.8541 0 7.1484 1.3672 9.8828 4.1016 c2.7213 2.7344 4.082 6.0287 4.082 9.8828 c0 3.8412 -1.3607 7.1289 -4.082 9.8633 c-2.7344 2.7344 -6.0287 4.1016 -9.8828 4.1016 l-7.3438 0 z M363.41801875 12.050999999999998 l0 27.949 l14.258 0 l0 -4.2383 l-10.02 0 l0 -7.6563 l7.7344 0 l0 -4.2383 l-7.7344 0 l0 -7.5781 l10.02 0 l0 -4.2383 l-14.258 0 z M388.51566875 40.25391 c-1.849 -0.078125 -3.5547 -0.57291 -5.1172 -1.4844 c-1.7708 -1.0287 -2.9752 -2.4088 -3.6133 -4.1406 l3.9844 -1.4648 c0.32553 0.85938 0.99609 1.556 2.0117 2.0898 c0.89844 0.45572 1.875 0.70963 2.9297 0.76172 c1.6276 0.065098 2.9752 -0.33203 4.043 -1.1914 c0.89844 -0.72916 1.3737 -1.5625 1.4258 -2.5 c0.078125 -1.7838 -1.7904 -3.2096 -5.6055 -4.2773 c-5.9766 -1.6797 -8.8736 -4.5248 -8.6914 -8.5352 c0.11719 -2.8125 1.3216 -4.9154 3.6133 -6.3086 c1.7448 -1.0677 3.8412 -1.543 6.2891 -1.4258 c2.9688 0.13021 5.3516 1.1654 7.1484 3.1055 l-3.1055 2.8906 c-1.0156 -1.0938 -2.4283 -1.6797 -4.2383 -1.7578 c-1.276 -0.05209 -2.3633 0.11066 -3.2617 0.48826 c-1.4063 0.59896 -2.142 1.6667 -2.207 3.2031 c-0.078125 1.7578 1.7904 3.1705 5.6055 4.2383 c3.4375 0.96354 5.8725 2.3828 7.3047 4.2578 c0.98959 1.3021 1.4518 2.7408 1.3867 4.3164 c-0.10416 2.2135 -1.1068 4.0885 -3.0078 5.625 c-1.7708 1.4193 -3.8932 2.1289 -6.3672 2.1289 c-0.18229 0 -0.35807 -0.0065041 -0.52734 -0.019531 z M406.074225 12.09 l-4.2383 0 l0 27.91 l4.2383 0 l0 -27.91 z M413.691375 36.0937 c-2.7865 -2.7865 -4.1797 -6.1459 -4.1797 -10.078 s1.3932 -7.2916 4.1797 -10.078 s6.1459 -4.1797 10.078 -4.1797 c1.9401 0 3.7891 0.37109 5.5469 1.1133 l-1.6406 3.9258 c-1.25 -0.53385 -2.5521 -0.80078 -3.9063 -0.80078 c-2.7604 0 -5.1172 0.98307 -7.0703 2.9492 c-1.9531 1.9531 -2.9297 4.31 -2.9297 7.0703 s0.97656 5.1172 2.9297 7.0703 s4.31 2.9297 7.0703 2.9297 c0.89844 0 1.7708 -0.11068 2.6172 -0.33203 l0 -7.6172 l-4.5313 0 l0 -4.2578 l8.7891 0 l0 14.785 l-1.2891 0.54688 c-1.7838 0.75521 -3.6459 1.1328 -5.5859 1.1328 c-3.9322 0 -7.2916 -1.3932 -10.078 -4.1797 z M450.02003125 12.050999999999998 l0 19.98 l-11.934 -19.98 l-4.4336 0 l0 27.949 l4.2383 0 l0 -19.98 l11.953 19.98 l4.4336 0 l0 -27.949 l-4.2578 0 z"/></g>
			</g>
		</svg>
	